<svg id="Capa_1" enable-background="new 0 0 512 512" height="512" viewBox="0 0 512 512" width="512" xmlns="http://www.w3.org/2000/svg"><g><path d="m55.482 415.164c-35.224-44.316-56.067-100.576-55.47-161.722 1.369-140.091 116.203-253.61 256.302-253.442 141.24.17 255.686 114.72 255.686 256 0 71.758-29.524 136.62-77.087 183.102-4.605 4.5-11.452 5.883-17.412 3.448-60.558-24.742-132.21-39.05-208.998-39.05-48.982 0-95.873 5.822-139.129 16.46-5.173 1.272-10.578-.626-13.892-4.796z" fill="#44bfd7"/><path d="m440.617 256c0 101.961-82.656 184.617-184.617 184.617s-184.617-82.656-184.617-184.617 82.656-184.617 184.617-184.617 184.617 82.656 184.617 184.617z" fill="#7cd2e3"/><path d="m467.437 160.383c0 2.761-2.239 5-5 5h-5v5c0 2.761-2.239 5-5 5s-5-2.239-5-5v-5h-5c-2.761 0-5-2.239-5-5s2.239-5 5-5h5v-5c0-2.761 2.239-5 5-5s5 2.239 5 5v5h5c2.762 0 5 2.239 5 5z" fill="#c2eaf2"/><path d="m380 110v5c0 2.761-2.239 5-5 5s-5-2.239-5-5v-5h-5c-2.761 0-5-2.239-5-5s2.239-5 5-5h5v-5c0-2.761 2.239-5 5-5s5 2.239 5 5v5h5c2.761 0 5 2.239 5 5s-2.239 5-5 5zm30 115h-5v-5c0-2.761-2.239-5-5-5s-5 2.239-5 5v5h-5c-2.761 0-5 2.239-5 5s2.239 5 5 5h5v5c0 2.761 2.239 5 5 5s5-2.239 5-5v-5h5c2.761 0 5-2.239 5-5s-2.239-5-5-5z" fill="#def4f8"/><path d="m85.894 447.314c-11.093-9.87-21.321-20.69-30.558-32.333v-14.598c0-38.66 31.34-70 70-70h12.09s14.482 3.176 4.434 8.752c-21.518 11.942-36.082 34.894-36.082 61.248v37.939c0 10.301-12.188 15.84-19.884 8.992z" fill="#2e5aac"/><path d="m375.336 400.383v5.773c0 54.02-40.89 99.529-94.665 104.671-8.119.776-16.349 1.173-24.671 1.173-12.219 0-24.238-.856-36-2.511-.836-.118-1.671-3.044-2.504-3.169-1.778-.268-2.645-.717-4.411-1.021-.728-.126-2.359 2.712-3.085 2.581-47.382-8.597-90.221-30.235-124.664-61.062v-46.434c0-38.66 31.34-70 70-70l58.005 21.213 91.995-21.213c38.66-.001 70 31.339 70 69.999z" fill="#4172cc"/><path d="m272.615 386.27 20.503 15.035-73.118 75.276v32.907c-3.355-.472-6.688-1.009-10-1.61v-31.989l-72.446-74.585 20.439-15.129-32.673-56.744c-1.945-3.378 1.192-7.413 4.945-6.359l26.053 7.311c34.982 30.817 87.409 30.86 122.44.099l.113-.099h31.8z" fill="#6990d7"/><path d="m346.672 156c0 29.823-24.177 54-54 54h-154.672c-29.823 0-54-24.177-54-54 0-29.823 24.177-54 54-54h154.672c29.823 0 54 24.177 54 54z" fill="#b56d3c"/><path d="m186.672 156c0 28.93-22.75 52.546-51.336 53.935-28.586-1.389-51.336-25.005-51.336-53.935s22.75-52.546 51.336-53.935c28.586 1.389 51.336 25.005 51.336 53.935z" fill="#9b5e34"/><path d="m130.336 205.383v10c0 13.807-11.193 25-25 25-13.807 0-25-11.193-25-25v-10c0-13.807 11.193-25 25-25 13.807 0 25 11.193 25 25z" fill="#ffbeaa"/><path d="m95.336 200.383v20c0 8.178 3.927 15.439 9.998 20-13.806-.001-24.998-11.193-24.998-25v-10c0-13.806 11.192-24.999 24.998-25-6.071 4.561-9.998 11.822-9.998 20zm230-20v-20c0-60.751-49.249-110-110-110-60.751 0-110 49.249-110 110v40c0 50.351 33.83 92.801 80 105.859v24.141h-30l43.628 98.578c5.867 14.845 26.877 14.845 32.745 0l42.376-98.578h-28.748v-24.141c33.586-9.5 60.641-34.551 72.895-66.883 2.252.666 4.637 1.024 7.105 1.024 13.807 0 25-11.193 25-25v-10c-.001-13.807-11.194-25-25.001-25z" fill="#faa68e"/><path d="m325.336 160.383v40c0 50.792-34.425 93.543-81.216 106.195-9.023 2.44-18.545 2.44-27.568 0-46.791-12.652-81.216-55.403-81.216-106.195v-40c0-55.663 41.345-101.669 95-108.985 53.655 7.315 95 53.322 95 108.985z" fill="#ffbeaa"/><path d="m182.836 167.883c0 8.284-6.716 15-15 15s-15-6.716-15-15 6.716-15 15-15 15 6.716 15 15zm80-15c-8.284 0-15 6.716-15 15s6.716 15 15 15 15-6.716 15-15-6.716-15-15-15z" fill="#19305c"/><path d="m185.336 160.383c0 4.142-3.358 7.5-7.5 7.5s-7.5-3.358-7.5-7.5 3.358-7.5 7.5-7.5 7.5 3.358 7.5 7.5zm87.5-7.5c-4.142 0-7.5 3.358-7.5 7.5s3.358 7.5 7.5 7.5 7.5-3.358 7.5-7.5-3.358-7.5-7.5-7.5z" fill="#fff5f5"/><path d="m332.127 126.463c0 11.854-10.314 21.462-23.038 21.462h-21.475c-9.801 0-18.172-5.702-21.501-13.739h-18.642c-10.453 0-18.926-7.895-18.926-17.632 0-9.738 8.474-17.632 18.926-17.632h54.21c6.365 0 11.996 2.927 15.427 7.415 8.77 3.034 15.019 10.9 15.019 20.126z" fill="#b56d3c"/><path d="m239.859 410-19.323 47.226c-1.864 4.715-8.537 4.715-10.401 0l-19.563-47.226z" fill="#35e298"/><path d="m340.142 187.95-14.82 14.821c-.935 59.945-49.819 108.25-109.986 108.25-60.751 0-110-49.249-110-110h57.438c15.74 0 31.424-2.518 46.208-7.92 2.27-.83 4.481-1.377 6.354-1.377s4.083.547 6.354 1.377c14.784 5.402 30.468 7.92 46.209 7.92h45.031l20.142-20.142c1.953-1.953 5.118-1.953 7.071 0s1.952 5.119-.001 7.071z" fill="#fff5f5"/><path d="m266.39 257.412c-14.076 4.611-32.565 6.917-51.054 6.917s-36.979-2.306-51.054-6.917c-2.625-.86-4.055-3.685-3.195-6.309s3.684-4.055 6.308-3.195c26.435 8.662 69.447 8.662 95.882 0 2.622-.859 5.448.571 6.308 3.195s-.57 5.449-3.195 6.309zm-89.58-21.15c10.802 3.54 24.664 5.31 38.526 5.31s27.725-1.77 38.526-5.31c2.625-.859 4.055-3.684 3.195-6.308-.86-2.625-3.687-4.057-6.308-3.194-19.526 6.396-51.298 6.396-70.826 0-2.624-.862-5.448.569-6.308 3.194-.86 2.624.57 5.448 3.195 6.308zm73.939 35.498c-19.526 6.396-51.298 6.396-70.826 0-2.624-.863-5.448.569-6.308 3.194-.86 2.624.57 5.448 3.195 6.308 10.802 3.54 24.664 5.31 38.526 5.31s27.725-1.77 38.526-5.31c2.625-.859 4.055-3.684 3.195-6.308-.86-2.625-3.687-4.058-6.308-3.194zm-115.413-70.739h-18.265l-20.142-20.142c-1.953-1.953-5.118-1.953-7.071 0s-1.953 5.119 0 7.071l15.505 15.505c1.294 59.627 50.035 107.566 109.973 107.566 5.088 0 10.095-.346 15-1.015-53.655-7.315-95-53.322-95-108.985z" fill="#c2eaf2"/><path d="m149 445.5c0 5.79 4.71 10.5 10.5 10.5h126.5c2.761 0 5 2.238 5 5s-2.239 5-5 5h-126.5c-11.304 0-20.5-9.196-20.5-20.5s9.196-20.5 20.5-20.5h43c5.79 0 10.5-4.71 10.5-10.5v-12.496c-8.182-1.183-15.451-5.573-20.392-12.448l-97.549-135.721c-7.811-10.866-7.8-24.939.027-35.853 1.61-2.243 4.734-2.76 6.977-1.148 2.244 1.609 2.758 4.732 1.149 6.977-5.285 7.369-5.298 16.863-.033 24.188l97.549 135.721c3.932 5.471 10.05 8.607 16.787 8.607 6.736 0 12.854-3.138 16.786-8.607l97.549-135.721c6.686-9.303 3.912-20.002-1.496-26.007-1.848-2.052-1.683-5.213.369-7.062 2.053-1.848 5.214-1.683 7.062.37 9.785 10.864 10.683 26.711 2.185 38.534l-97.549 135.721c-4.745 6.602-11.636 10.914-19.422 12.293v12.652c0 11.304-9.196 20.5-20.5 20.5h-43c-5.789 0-10.499 4.71-10.499 10.5z" fill="#203e76"/><path d="m508.192 350.48c-21.654-21.654-50.921-31.168-79.265-28.543-8.937 10.623-16.874 21.801-23.811 33.411 27.416-13.866 61.814-9.36 84.691 13.517 5.077 5.077 13.308 5.077 18.385 0s5.077-13.308 0-18.385z" fill="#ffb52d"/><path d="m435.467 438.559c-31.324 30.797-70.537 53.593-114.33 65.081-22.028 5.778-43.554-10.924-43.554-33.698v-2.76c0-45.025 36.5-81.525 81.525-81.525 34.953-.001 64.768 21.996 76.359 52.902z" fill="#ffc14f"/><path d="m381.436 388.752c-34.169 9.71-59.194 41.147-59.194 78.429v36.166c-14.424 3.853-29.35 6.478-44.659 7.756v-43.921c0-45.025 36.5-81.525 81.525-81.525 7.742-.001 15.232 1.079 22.328 3.095z" fill="#ffb52d"/><path d="m364.108 442v46.121c-3.296 1.538-6.63 3.007-10 4.407v-50.528c0-2.761 2.239-5 5-5s5 2.239 5 5zm21.663 16.5c-4.142 0-7.5 3.358-7.5 7.5s3.358 7.5 7.5 7.5h5.312c7.449-4.637 14.643-9.646 21.556-15zm44.78-30.619h-37.886c-4.142 0-7.5 3.358-7.5 7.5 0 4.143 3.358 7.5 7.5 7.5h38.297c1.519-1.422 3.021-2.863 4.504-4.322-1.385-3.694-3.031-7.261-4.915-10.678z" fill="#ff9f22"/><path d="m406.437 298.892c20.818 0 37.694 16.876 37.694 37.694 0 30.878-16.74 59.328-43.732 74.324-25.679 14.266-56.903 14.266-82.582 0-26.992-14.996-43.732-43.446-43.732-74.324v-39.884c7.626-3.552 11.763-11.919 9.954-20.135-2.438-11.071-5.184-24.443-2.587-24.821.716-.104 1.46-.12 2.221-.037 2.741.3 5.137 1.995 6.556 4.36l25.694 42.823z" fill="#ffcd71"/><path d="m444.131 319.135v17.451c0 30.878-16.74 59.328-43.732 74.324-6.498 3.61-13.352 6.306-20.381 8.089-7.029-1.783-13.883-4.479-20.381-8.089-26.992-14.996-43.732-43.446-43.732-74.324v-37.694h86.389l25.831-43.052c1.557-2.596 4.362-4.184 7.389-4.184.174 0 .346.005.518.015 3.162.187.747 18.231-.988 30.619-.876 6.256 3.006 12.192 9.087 13.901z" fill="#ffd993"/><path d="m297.412 294.574c2.775 7.817-3.023 16.027-11.318 16.027-6.633 0-12.01-5.377-12.01-12.01v-38.318c0-4.585 3.581-8.334 8.099-8.602zm138.62-42.903-15.229 42.902c-2.775 7.817 3.023 16.027 11.318 16.027 6.633 0 12.01-5.377 12.01-12.01v-38.318c0-4.584-3.581-8.333-8.099-8.601z" fill="#ff7c48"/><path d="m334.108 335c0 2.761-2.239 5-5 5h-10c-2.761 0-5-2.239-5-5s2.239-5 5-5h10c2.761 0 5 2.239 5 5zm65-5h-10c-2.761 0-5 2.239-5 5s2.239 5 5 5h10c2.761 0 5-2.239 5-5s-2.239-5-5-5z" fill="#554640"/><path d="m364.108 382.133v10c0 2.762-2.239 5-5 5s-5-2.238-5-5v-10c0-2.761 2.239-5 5-5s5 2.239 5 5z" fill="#fc7979"/><path d="m395.331 375.789c0 8.284-6.716 15-15 15h-7.596c-6.043 0-11.252-3.574-13.628-8.724-2.375 5.15-7.584 8.724-13.628 8.724h-7.596c-8.284 0-15-6.716-15-15 0-8.285 6.716-15 15-15h7.596c6.043 0 11.252 3.574 13.628 8.724 2.375-5.149 7.584-8.724 13.628-8.724h7.596c8.284 0 15 6.715 15 15z" fill="#f9f1d2"/><path d="m375.108 366.054c0 4.418-3.582 8-8 8h-1.6v4.8c0 3.535-2.865 6.4-6.4 6.4s-6.4-2.865-6.4-6.4v-4.8h-1.6c-4.418 0-8-3.582-8-8s3.582-8 8-8h16c4.418 0 8 3.581 8 8z" fill="#fd9a9a"/><path d="m336.097 370.789c0 2.761-2.239 5-5 5h-82.012c-2.761 0-5-2.239-5-5 0-2.762 2.239-5 5-5h82.012c2.761 0 5 2.238 5 5zm-25.648 18.552-41.251 13.758c-2.62.873-4.036 3.705-3.163 6.324.699 2.095 2.649 3.42 4.743 3.42.524 0 1.057-.083 1.582-.258l41.251-13.758c2.62-.873 4.036-3.705 3.163-6.324-.874-2.619-3.704-4.035-6.325-3.162zm158.682-23.552h-82.012c-2.761 0-5 2.238-5 5 0 2.761 2.239 5 5 5h82.012c2.761 0 5-2.239 5-5 0-2.762-2.239-5-5-5zm-20.114 37.31-41.25-13.758c-2.621-.873-5.451.543-6.325 3.163-.873 2.62.543 5.451 3.163 6.324l41.25 13.758c.524.175 1.058.258 1.582.258 2.094 0 4.044-1.325 4.743-3.42.872-2.621-.544-5.452-3.163-6.325z" fill="#b56d3c"/><path d="m391.608 297.5v15c0 4.142-3.358 7.5-7.5 7.5-2.609 0-4.906-1.333-6.25-3.354-1.344 2.021-3.641 3.354-6.25 3.354s-4.906-1.333-6.25-3.354c-1.344 2.021-3.641 3.354-6.25 3.354s-4.906-1.333-6.25-3.354c-1.344 2.021-3.641 3.354-6.25 3.354-4.142 0-7.5-3.358-7.5-7.5v-15c0-4.142 3.358-7.5 7.5-7.5 2.609 0 4.906 1.333 6.25 3.354 1.344-2.021 3.641-3.354 6.25-3.354s4.906 1.333 6.25 3.354c1.344-2.021 3.641-3.354 6.25-3.354s4.906 1.333 6.25 3.354c1.344-2.021 3.641-3.354 6.25-3.354 4.142 0 7.5 3.358 7.5 7.5z" fill="#4172cc"/><path d="m334.108 310c-4.142 0-7.5-3.358-7.5-7.5v-5c0-4.142 3.358-7.5 7.5-7.5 4.142 0 7.5 3.358 7.5 7.5v5c0 4.142-3.358 7.5-7.5 7.5z" fill="#2e5aac"/><path d="m312.5 461.5c0 13.807-11.193 25-25 25s-25-11.193-25-25 11.193-25 25-25 25 11.193 25 25z" fill="#91aee2"/><path d="m302.5 462c0 8.284-6.716 15-15 15s-15-6.716-15-15 6.716-15 15-15 15 6.716 15 15z" fill="#2e5aac"/><path d="m300.984 468.579c-2.437 4.987-7.559 8.421-13.484 8.421-8.284 0-15-6.716-15-15 0-5.924 3.435-11.046 8.422-13.484-.971 1.986-1.516 4.218-1.516 6.578 0 8.284 6.716 15 15 15 2.359 0 4.592-.545 6.578-1.515z" fill="#274c91"/><path d="m352.31 72v10c0 16.569-13.431 30-30 30h-213.948c-16.569 0-30-13.431-30-30v-10c0-16.569 13.431-30 30-30h19.655c12.141 0 21.983-9.842 21.983-21.983 0-11.055 8.962-20.017 20.017-20.017h90.638c11.055 0 20.017 8.962 20.017 20.017 0 12.141 9.842 21.983 21.983 21.983h19.655c16.569 0 30 13.431 30 30z" fill="#4172cc"/><path d="m125.019 112h-16.657c-16.568 0-30-13.432-30-30v-10c0-16.568 13.432-30 30-30h19.655c12.141 0 21.983-9.842 21.983-21.983 0-11.055 8.962-20.017 20.017-20.017h45.533-.003c-12.501 1.585-21.349 13.005-19.763 25.505 1.741 13.729-7.977 26.27-21.705 28.011l-22.225 2.819c-18.735 2.376-31.997 19.491-29.62 38.226l1.434 11.308c.266 2.119.724 4.167 1.351 6.131z" fill="#2e5aac"/><path d="m203.011 91.805c1.953 1.953 1.953 5.119 0 7.071l-13.23 13.23h-8.894l-13.231-13.23c-1.953-1.953-1.953-5.119 0-7.071s5.119-1.953 7.071 0l10.607 10.607 10.607-10.607c1.952-1.953 5.117-1.953 7.07 0zm-60.404 0-10.607 10.607-10.607-10.607c-1.953-1.953-5.118-1.953-7.071 0s-1.953 5.119 0 7.071l13.23 13.23h8.895l13.23-13.23c1.953-1.953 1.953-5.119 0-7.071s-5.118-1.953-7.07 0zm167.071 0c-1.953-1.953-5.119-1.953-7.071 0l-10.607 10.607-10.607-10.607c-1.953-1.953-5.118-1.953-7.071 0s-1.953 5.119 0 7.071l13.23 13.23h8.895l13.23-13.23c1.953-1.953 1.953-5.119.001-7.071zm-60.405 0-10.606 10.607-10.607-10.607c-1.953-1.953-5.118-1.953-7.071 0s-1.953 5.119 0 7.071l13.23 13.23h8.894l13.231-13.23c1.953-1.953 1.953-5.119 0-7.071-1.952-1.953-5.118-1.953-7.071 0z" fill="#376099"/><path d="m340.672 114.34c0 2.761-2.239 5-5 5h-240.672c-2.761 0-5-2.239-5-5s2.239-5 5-5h240.672c2.761 0 5 2.239 5 5z" fill="#2e5180"/><path d="m252.164 47c0 20.525-16.639 37.164-37.164 37.164s-37.164-16.639-37.164-37.164 16.639-37.164 37.164-37.164 37.164 16.639 37.164 37.164z" fill="#c2eaf2"/><path d="m252.164 47c0 17.307-11.83 31.851-27.845 35.986-16.015-4.135-27.845-18.679-27.845-35.986s11.83-31.85 27.845-35.986c16.015 4.136 27.845 18.679 27.845 35.986z" fill="#def4f8"/><path d="m240 47c0 2.761-2.239 5-5 5h-15v15c0 2.761-2.239 5-5 5s-5-2.239-5-5v-15h-15c-2.761 0-5-2.239-5-5s2.239-5 5-5h15v-15c0-2.761 2.239-5 5-5s5 2.239 5 5v15h15c2.761 0 5 2.239 5 5z" fill="#f44545"/></g></svg>